<svg width="287" height="160" viewBox="0 0 287 160" fill="none" xmlns="http://www.w3.org/2000/svg">
<g clip-path="url(#clip0_45_2)">
<path d="M45.4038 72.3863C43.0144 61.288 48.0326 48.7991 58.5605 44.5222C66.8435 41.1548 79.5164 40.0403 96.4846 44.1358C141.372 54.9712 137.492 42.5875 154.918 32.9139C170.246 24.3995 188.97 13.9531 221.476 33.6867C246.126 48.6519 231.536 71.9973 248.176 86.3132C258.877 95.5136 240.816 140.101 188.97 130.428C137.124 120.754 125.371 134.326 101.902 139.329C78.2967 144.363 29.5555 114.432 42.6989 100.634C50.4352 92.509 46.9048 79.3629 45.4038 72.3863Z" fill="#0071AD"/>
<path d="M53.7395 81.0347C54.9009 81.0347 55.8424 80.0932 55.8424 78.9318C55.8424 77.7703 54.9009 76.8288 53.7395 76.8288C52.5781 76.8288 51.6365 77.7703 51.6365 78.9318C51.6365 80.0932 52.5781 81.0347 53.7395 81.0347Z" fill="white"/>
<path d="M70.1688 67.3655C70.8221 67.3655 71.3517 66.8359 71.3517 66.1826C71.3517 65.5293 70.8221 64.9997 70.1688 64.9997C69.5155 64.9997 68.9859 65.5293 68.9859 66.1826C68.9859 66.8359 69.5155 67.3655 70.1688 67.3655Z" fill="white"/>
<path d="M74.2433 99.4356C74.9692 99.4356 75.5576 98.8471 75.5576 98.1212C75.5576 97.3953 74.9692 96.8069 74.2433 96.8069C73.5174 96.8069 72.929 97.3953 72.929 98.1212C72.929 98.8471 73.5174 99.4356 74.2433 99.4356Z" fill="white"/>
<path d="M63.0713 117.836C63.8698 117.836 64.5171 117.189 64.5171 116.391C64.5171 115.592 63.8698 114.945 63.0713 114.945C62.2728 114.945 61.6255 115.592 61.6255 116.391C61.6255 117.189 62.2728 117.836 63.0713 117.836Z" fill="white"/>
<path d="M96.4557 123.882C97.2542 123.882 97.9015 123.235 97.9015 122.437C97.9015 121.638 97.2542 120.991 96.4557 120.991C95.6572 120.991 95.0099 121.638 95.0099 122.437C95.0099 123.235 95.6572 123.882 96.4557 123.882Z" fill="white"/>
<path d="M158.887 123.357C159.758 123.357 160.464 122.651 160.464 121.779C160.464 120.908 159.758 120.202 158.887 120.202C158.016 120.202 157.31 120.908 157.31 121.779C157.31 122.651 158.016 123.357 158.887 123.357Z" fill="white"/>
<path d="M184.78 89.4466C185.578 89.4466 186.226 88.7993 186.226 88.0008C186.226 87.2023 185.578 86.555 184.78 86.555C183.981 86.555 183.334 87.2023 183.334 88.0008C183.334 88.7993 183.981 89.4466 184.78 89.4466Z" fill="white"/>
<path d="M204.626 69.4685C205.207 69.4685 205.678 68.9977 205.678 68.417C205.678 67.8363 205.207 67.3655 204.626 67.3655C204.046 67.3655 203.575 67.8363 203.575 68.417C203.575 68.9977 204.046 69.4685 204.626 69.4685Z" fill="white"/>
<path d="M220.793 74.2002C221.591 74.2002 222.239 73.5529 222.239 72.7544C222.239 71.9559 221.591 71.3086 220.793 71.3086C219.994 71.3086 219.347 71.9559 219.347 72.7544C219.347 73.5529 219.994 74.2002 220.793 74.2002Z" fill="white"/>
<path d="M232.753 55.7993C233.479 55.7993 234.068 55.2108 234.068 54.4849C234.068 53.759 233.479 53.1706 232.753 53.1706C232.028 53.1706 231.439 53.759 231.439 54.4849C231.439 55.2108 232.028 55.7993 232.753 55.7993Z" fill="white"/>
<path d="M230.388 109.162C231.114 109.162 231.702 108.573 231.702 107.847C231.702 107.122 231.114 106.533 230.388 106.533C229.662 106.533 229.073 107.122 229.073 107.847C229.073 108.573 229.662 109.162 230.388 109.162Z" fill="white"/>
<path d="M208.701 125.46C209.499 125.46 210.147 124.812 210.147 124.014C210.147 123.215 209.499 122.568 208.701 122.568C207.902 122.568 207.255 123.215 207.255 124.014C207.255 124.812 207.902 125.46 208.701 125.46Z" fill="white"/>
<path d="M129.972 106.796C131.278 106.796 132.337 105.737 132.337 104.43C132.337 103.123 131.278 102.064 129.972 102.064C128.665 102.064 127.606 103.123 127.606 104.43C127.606 105.737 128.665 106.796 129.972 106.796Z" fill="white"/>
<path d="M141.538 81.0347C142.844 81.0347 143.904 79.9755 143.904 78.6689C143.904 77.3623 142.844 76.3031 141.538 76.3031C140.231 76.3031 139.172 77.3623 139.172 78.6689C139.172 79.9755 140.231 81.0347 141.538 81.0347Z" fill="white"/>
<path d="M171.768 69.7313C173.074 69.7313 174.134 68.6721 174.134 67.3655C174.134 66.0589 173.074 64.9997 171.768 64.9997C170.461 64.9997 169.402 66.0589 169.402 67.3655C169.402 68.6721 170.461 69.7313 171.768 69.7313Z" fill="white"/>
<path d="M171.636 105.482C173.016 105.482 174.134 104.364 174.134 102.984C174.134 101.605 173.016 100.487 171.636 100.487C170.257 100.487 169.139 101.605 169.139 102.984C169.139 104.364 170.257 105.482 171.636 105.482Z" fill="white"/>
<path d="M197.398 102.064C198.777 102.064 199.895 100.946 199.895 99.567C199.895 98.1878 198.777 97.0698 197.398 97.0698C196.018 97.0698 194.9 98.1878 194.9 99.567C194.9 100.946 196.018 102.064 197.398 102.064Z" fill="white"/>
<path d="M120.245 91.2866C121.552 91.2866 122.611 90.2274 122.611 88.9208C122.611 87.6142 121.552 86.555 120.245 86.555C118.939 86.555 117.88 87.6142 117.88 88.9208C117.88 90.2274 118.939 91.2866 120.245 91.2866Z" fill="white"/>
<path d="M135.492 112.316C136.798 112.316 137.858 111.257 137.858 109.95C137.858 108.644 136.798 107.585 135.492 107.585C134.185 107.585 133.126 108.644 133.126 109.95C133.126 111.257 134.185 112.316 135.492 112.316Z" fill="white"/>
<path d="M152.578 94.1782C153.885 94.1782 154.944 93.119 154.944 91.8124C154.944 90.5057 153.885 89.4465 152.578 89.4465C151.272 89.4465 150.213 90.5057 150.213 91.8124C150.213 93.119 151.272 94.1782 152.578 94.1782Z" fill="white"/>
<path d="M91.4612 100.487C92.6952 100.487 93.6956 99.4867 93.6956 98.2527C93.6956 97.0187 92.6952 96.0183 91.4612 96.0183C90.2272 96.0183 89.2268 97.0187 89.2268 98.2527C89.2268 99.4867 90.2272 100.487 91.4612 100.487Z" fill="white"/>
<path d="M114.071 71.8264C115.305 71.8264 116.305 70.8261 116.305 69.5921C116.305 68.358 115.305 67.3577 114.071 67.3577C112.837 67.3577 111.836 68.358 111.836 69.5921C111.836 70.8261 112.837 71.8264 114.071 71.8264Z" fill="white"/>
<path d="M45.162 115.573L53.7395 78.9318L90.5412 98.3841L119.983 88.9208L129.972 104.43L135.492 110.739L152.578 91.5495L171.505 103.379L197.003 99.4356" stroke="white" stroke-width="0.788608" stroke-linecap="round" stroke-linejoin="round"/>
<path d="M121 88.9313L141.217 78.3929L171.768 67.3655" stroke="white" stroke-width="0.788608" stroke-miterlimit="10"/>
<path d="M92.7756 54.4849C93.4289 54.4849 93.9585 53.9553 93.9585 53.302C93.9585 52.6487 93.4289 52.1191 92.7756 52.1191C92.1223 52.1191 91.5927 52.6487 91.5927 53.302C91.5927 53.9553 92.1223 54.4849 92.7756 54.4849Z" fill="white"/>
<path d="M178.602 33.7183C179.183 33.7183 179.654 33.2475 179.654 32.6668C179.654 32.0861 179.183 31.6153 178.602 31.6153C178.022 31.6153 177.551 32.0861 177.551 32.6668C177.551 33.2475 178.022 33.7183 178.602 33.7183Z" fill="white"/>
<path d="M115.908 59.7423C116.561 59.7423 117.091 59.2127 117.091 58.5594C117.091 57.9061 116.561 57.3765 115.908 57.3765C115.255 57.3765 114.725 57.9061 114.725 58.5594C114.725 59.2127 115.255 59.7423 115.908 59.7423Z" fill="white"/>
<path d="M153.104 52.1191C153.685 52.1191 154.156 51.6484 154.156 51.0677C154.156 50.4869 153.685 50.0162 153.104 50.0162C152.523 50.0162 152.053 50.4869 152.053 51.0677C152.053 51.6484 152.523 52.1191 153.104 52.1191Z" fill="white"/>
<path d="M90.9355 78.9318C91.4436 78.9318 91.8555 78.5198 91.8555 78.0117C91.8555 77.5036 91.4436 77.0917 90.9355 77.0917C90.4274 77.0917 90.0154 77.5036 90.0154 78.0117C90.0154 78.5198 90.4274 78.9318 90.9355 78.9318Z" fill="white"/>
<path d="M195.163 42.6558C196.034 42.6558 196.74 41.9497 196.74 41.0786C196.74 40.2075 196.034 39.5014 195.163 39.5014C194.292 39.5014 193.586 40.2075 193.586 41.0786C193.586 41.9497 194.292 42.6558 195.163 42.6558Z" fill="white"/>
<path d="M165.196 56.5879C165.777 56.5879 166.248 56.1171 166.248 55.5364C166.248 54.9557 165.777 54.4849 165.196 54.4849C164.615 54.4849 164.145 54.9557 164.145 55.5364C164.145 56.1171 164.615 56.5879 165.196 56.5879Z" fill="white"/>
<path d="M58.9968 52.1191C59.7227 52.1191 60.3112 51.5307 60.3112 50.8048C60.3112 50.0789 59.7227 49.4904 58.9968 49.4904C58.2709 49.4904 57.6825 50.0789 57.6825 50.8048C57.6825 51.5307 58.2709 52.1191 58.9968 52.1191Z" fill="white"/>
<path d="M215.667 90.2351C216.393 90.2351 216.981 89.6467 216.981 88.9208C216.981 88.1949 216.393 87.6064 215.667 87.6064C214.941 87.6064 214.353 88.1949 214.353 88.9208C214.353 89.6467 214.941 90.2351 215.667 90.2351Z" fill="white"/>
<path d="M230.388 107.847L215.667 88.9208L220.661 72.6229L204.626 68.417" stroke="white" stroke-width="0.788608" stroke-miterlimit="10"/>
<path d="M114.071 69.592L119.983 88.9208" stroke="white" stroke-width="0.788608" stroke-linecap="round" stroke-linejoin="round"/>
</g>
<defs>
<clipPath id="clip0_45_2">
<rect width="286.188" height="159.609" fill="white"/>
</clipPath>
</defs>
</svg>
